<?xml version="1.0" encoding="UTF-8" standalone="no"?>
<!-- Created with Inkscape (http://www.inkscape.org/) -->

<svg
   width="16.933331mm"
   height="16.933382mm"
   viewBox="0 0 16.933331 16.933382"
   version="1.1"
   id="svg1"
   xml:space="preserve"
   xmlns:inkscape="http://www.inkscape.org/namespaces/inkscape"
   xmlns:sodipodi="http://sodipodi.sourceforge.net/DTD/sodipodi-0.dtd"
   xmlns="http://www.w3.org/2000/svg"
   xmlns:svg="http://www.w3.org/2000/svg"><sodipodi:namedview
     id="namedview1"
     pagecolor="#ffffff"
     bordercolor="#000000"
     borderopacity="0.25"
     inkscape:showpageshadow="2"
     inkscape:pageopacity="0.0"
     inkscape:pagecheckerboard="0"
     inkscape:deskcolor="#d1d1d1"
     inkscape:document-units="mm" /><defs
     id="defs1" /><g
     inkscape:label="Capa 1"
     inkscape:groupmode="layer"
     id="layer1"
     transform="translate(-21.101908,-122.12909)"><path
       style="fill:#000000;stroke-width:0.146085"
       d="m 23.743965,139.0313 c -0.967,-0.10957 -1.873901,-0.58518 -2.292759,-1.20242 -0.380646,-0.56092 -0.348635,0.10443 -0.348635,-7.24604 0,-7.35048 -0.03201,-6.68513 0.348635,-7.24606 0.356213,-0.52491 1.074233,-0.95596 1.908966,-1.14599 0.258533,-0.0589 0.542219,-0.0617 6.208403,-0.0617 5.666183,0 5.949868,0.003 6.208401,0.0617 0.834733,0.19003 1.552754,0.62108 1.908967,1.14599 0.380647,0.56093 0.348634,-0.10442 0.348634,7.24606 0,6.11545 -0.0051,6.54847 -0.07889,6.74974 -0.340378,0.9279 -1.403845,1.60223 -2.691445,1.7066 l -0.286975,0.0233 -2.704345,-1.98151 -2.704346,-1.98151 -2.697974,1.97684 c -2.579252,1.88985 -2.704921,1.97665 -2.855864,1.97234 -0.08684,-0.002 -0.208689,-0.0103 -0.270773,-0.0173 z m 3.126636,-3.08 2.697974,-1.97684 2.702979,1.98051 2.702979,1.98051 0.198038,-0.0232 c 0.52388,-0.0613 1.027874,-0.35145 1.221806,-0.70343 l 0.105032,-0.19064 v -6.43541 -6.43542 l -0.105032,-0.19064 c -0.134328,-0.2438 -0.466643,-0.4959 -0.808396,-0.61325 l -0.260525,-0.0895 h -5.756881 -5.756883 l -0.260523,0.0895 c -0.341755,0.11735 -0.67407,0.36945 -0.808398,0.61325 l -0.10503,0.19064 v 6.43542 6.43541 l 0.10503,0.19064 c 0.212259,0.38525 0.793371,0.69579 1.339693,0.71593 0.06199,0.002 0.933303,-0.61445 2.788137,-1.97352 z"
       id="path2" /></g></svg>
