<?xml version="1.0" encoding="UTF-8" standalone="no"?>
<!-- Created with Inkscape (http://www.inkscape.org/) -->

<svg
   width="16.93334mm"
   height="16.933334mm"
   viewBox="0 0 16.93334 16.933334"
   version="1.1"
   id="svg1"
   xml:space="preserve"
   xmlns:inkscape="http://www.inkscape.org/namespaces/inkscape"
   xmlns:sodipodi="http://sodipodi.sourceforge.net/DTD/sodipodi-0.dtd"
   xmlns="http://www.w3.org/2000/svg"
   xmlns:svg="http://www.w3.org/2000/svg"><sodipodi:namedview
     id="namedview1"
     pagecolor="#ffffff"
     bordercolor="#000000"
     borderopacity="0.25"
     inkscape:showpageshadow="2"
     inkscape:pageopacity="0.0"
     inkscape:pagecheckerboard="0"
     inkscape:deskcolor="#d1d1d1"
     inkscape:document-units="mm" /><defs
     id="defs1" /><g
     inkscape:label="Capa 1"
     inkscape:groupmode="layer"
     id="layer1"
     transform="translate(-96.005717,-165.37963)"><path
       style="fill:#000000;stroke-width:0.142816"
       d="m 106.77722,182.2921 c -0.18231,-0.0464 -0.38803,-0.18838 -0.49888,-0.34428 -0.0552,-0.0776 -0.8229,-1.59039 -1.70609,-3.36181 l -1.60579,-3.22076 -3.287154,-1.64445 c -3.615076,-1.8085 -3.513231,-1.74811 -3.630911,-2.15299 -0.05154,-0.17731 -0.0547,-0.24664 -0.01863,-0.40786 0.05668,-0.25329 0.192425,-0.44829 0.391194,-0.56193 0.08806,-0.0503 3.623221,-1.24507 7.855911,-2.65496 l 7.69579,-2.56342 0.21688,0.0455 c 0.38989,0.0818 0.62227,0.31433 0.70412,0.7046 l 0.0454,0.21646 -2.57971,7.74162 c -1.9148,5.74625 -2.60751,7.78 -2.68756,7.89053 -0.17845,0.24639 -0.59091,0.39105 -0.89456,0.31375 z m 0.39069,-0.65552 c 0.0493,-0.0542 0.97862,-2.79177 2.56253,-7.54856 1.36685,-4.10494 2.49338,-7.48904 2.5034,-7.52021 0.01,-0.0312 -1.93788,1.89752 -4.32866,4.286 l -4.34688,4.34269 1.61975,3.2399 c 0.89086,1.78194 1.64182,3.24874 1.66881,3.25956 0.114,0.0457 0.248,0.0209 0.32105,-0.0594 z m 4.60759,-15.54822 c -0.006,-0.006 -3.38421,1.1139 -7.5079,2.48791 -4.776782,1.59161 -7.528462,2.52625 -7.582624,2.57553 -0.09368,0.0852 -0.111314,0.24262 -0.03778,0.33727 0.02598,0.0334 1.492443,0.78362 3.258814,1.66708 l 3.21159,1.60628 4.33409,-4.33189 c 2.38376,-2.38254 4.32947,-4.33652 4.32382,-4.34218 z"
       id="path1"
       inkscape:export-filename="path1.svg"
       inkscape:export-xdpi="95.999954"
       inkscape:export-ydpi="95.999954" /></g></svg>
